Coordinates
version=1
nRows=13
nColumns=36
inDegrees=yes

Units are S.I. units (second, meters, Newtons, ...)
If the header above contains a line with 'inDegrees', this indicates whether rotational values are in degrees (yes) or radians (no).

endheader
time	pelvis_tilt	pelvis_list	pelvis_rotation	pelvis_tx	pelvis_ty	pelvis_tz	hip_flexion_r	hip_adduction_r	hip_rotation_r	knee_angle_r	knee_angle_r_beta	ankle_angle_r	subtalar_angle_r	mtp_angle_r	hip_flexion_l	hip_adduction_l	hip_rotation_l	knee_angle_l	knee_angle_l_beta	ankle_angle_l	subtalar_angle_l	mtp_angle_l	lumbar_extension	lumbar_bending	lumbar_rotation	arm_flex_r	arm_add_r	arm_rot_r	elbow_flex_r	pro_sup_r	arm_flex_l	arm_add_l	arm_rot_l	elbow_flex_l	pro_sup_l
      0.00000000	    -18.82187065	     10.63274044	     -7.42110911	     -5.86409637	      0.96988726	      0.18360440	    -20.97280414	    -13.32580884	     -9.16864020	      8.33674705	      0.14550368	    -34.13790146	     11.23428980	    -31.23685783	     92.81956021	     -6.38228169	     -9.89873242	    105.03311939	      1.83317376	     -3.08934686	    -25.17147494	     -3.33901373	      9.67209060	    -14.80479714	     15.29382457	     51.09027737	    -15.41065440	      7.87676114	    104.31607704	     90.00021046	    -82.95001368	    -20.31407935	    -11.86743985	     57.66742279	     90.00021046
      0.00400000	    -18.48047868	     11.79901416	     -8.29721659	     -5.82462558	      0.97035269	      0.18215140	    -23.00306371	    -15.23449775	     -9.00310173	      7.73784879	      0.13505094	    -37.55760583	     10.02224147	      0.74137695	     92.68773908	     -6.72796824	    -10.69335195	    101.45649369	      1.77074986	     -3.02182145	    -24.54470007	     20.44481707	     10.17837278	    -15.75381199	     16.70372042	     52.75603772	    -15.87907546	      7.76347347	    106.30324574	     90.00021046	    -84.56148316	    -18.80272807	    -15.14397517	     56.08817461	     90.00021046
      0.00800000	    -18.74440761	     11.76863664	     -7.35309283	     -5.78713168	      0.97081252	      0.18139847	    -24.17380284	    -15.16743828	    -10.46798331	      8.56741775	      0.14952965	    -37.34127998	      7.09725766	    -21.83995654	     92.92338112	     -5.68896896	    -10.50761171	     96.56609924	      1.68539638	     -1.12535672	    -21.59216804	     -4.03584498	     10.37347026	    -15.91657212	     15.84274942	     54.32925885	    -15.87176696	      7.64747554	    108.14427329	     90.00021046	    -86.29717508	    -17.22159170	    -18.39226629	     58.15307939	     90.00021046
      0.01200000	    -18.26415086	     12.25181032	     -7.92504935	     -5.74871774	      0.97176754	      0.18098673	    -25.34825989	    -16.17364199	     -9.81897567	     10.47006524	      0.18273711	    -37.99896105	      4.52487976	      0.06786263	     92.03007788	     -5.89518375	    -10.73698103	     92.25134614	      1.61008973	     -0.22129031	    -20.13527459	     -2.55405803	     10.13458816	    -16.33825140	     16.10410144	     55.76054938	    -15.68820278	      7.70144838	    109.94849131	     90.00021046	    -86.66032387	    -15.47209645	    -21.19265208	     56.71903195	     90.00021046
      0.01600000	    -18.73339838	     11.10985878	     -7.41345063	     -5.71272536	      0.97229224	      0.18256604	    -25.33871708	    -14.69729358	     -8.27925112	     13.34248826	      0.23287035	    -36.92067473	     -1.44728163	    -23.25380686	     91.78715595	     -5.65236726	     -9.31590499	     87.51341784	      1.52739728	      0.40676769	    -18.78222326	     -2.39553202	     10.10393470	    -15.37727864	     15.19046526	     56.86057261	    -15.46735979	      7.55374296	    111.96273987	     90.00021046	    -87.41354173	    -13.99022685	    -23.39546894	     58.31648889	     90.00021046
      0.02000000	    -18.41575028	     10.48984094	     -6.92173446	     -5.67526496	      0.97325952	      0.18236411	    -25.98732212	    -13.99819917	     -7.68207877	     16.62208650	      0.29011014	    -35.72837952	     -4.57524265	    -23.17396847	     90.49173779	     -5.23677587	     -8.85687629	     82.82807667	      1.44562265	      1.60202436	    -17.01522561	     -2.52793213	      9.41294430	    -14.93502324	     14.48823573	     57.44103557	    -15.75004755	      7.36218185	    114.25264499	     90.00021046	    -87.43411736	    -13.07232467	    -24.65393647	     57.24793366	     90.00021046
      0.02400000	    -18.13938983	     10.94514980	     -6.02499497	     -5.63780083	      0.97508160	      0.18095026	    -26.29352353	    -14.46001277	     -8.62536099	     20.71681074	      0.36157656	    -33.36563442	     -6.39516302	    -21.54491070	     88.82052320	     -3.93220854	     -9.20463345	     77.47084892	      1.35212139	      2.74378040	    -15.00243064	     -3.18602157	      8.74307849	    -15.77178907	     13.34982540	     57.47970276	    -15.77412621	      7.10815290	    116.41613195	     90.00021046	    -86.52426912	    -11.87684665	    -27.10533782	     55.72265956	     90.00021046
      0.02800000	    -18.10072328	     10.80712559	     -4.76668669	     -5.60092465	      0.97682437	      0.17951422	    -26.25812260	    -14.10020813	     -9.27220366	     25.00626484	      0.43644166	    -31.82332106	     -8.17599689	    -20.08652123	     87.23093867	     -2.28590637	     -8.79765595	     71.95555057	      1.25586127	      3.34143073	    -13.06706269	     -3.96553635	      8.04344024	    -15.95784374	     11.80754869	     57.11758215	    -15.97933673	      7.05477293	    118.68530265	     90.00021046	    -85.65139011	    -11.27173775	    -28.02686200	     54.65885433	     90.00021046
      0.03200000	    -17.76798205	     10.88838428	     -3.70646063	     -5.56380096	      0.97864707	      0.17869803	    -26.35309531	    -14.03728289	     -9.88570565	     29.53531302	      0.51548846	    -30.80619750	     -8.85906214	     -9.72552340	     85.14612822	     -0.91348303	     -8.72678913	     66.39916875	      1.15888412	      3.54731481	    -10.62358062	    -11.00522622	      7.05967790	    -16.50478536	     10.36158297	     56.44775350	    -16.01892342	      6.70062991	    120.83014409	     90.00021046	    -84.88829258	    -10.63657608	    -28.76903362	     54.65002322	     90.00021046
      0.03600000	    -17.45658344	     10.22873140	     -2.71304634	     -5.52661642	      0.98040751	      0.17763017	    -26.17700597	    -13.37432138	    -10.04095531	     34.35098037	      0.59953771	    -29.61895996	     -9.15155170	     -9.54948944	     83.08795804	      0.20481473	     -7.99000084	     61.36934527	      1.07109713	      3.91505588	     -8.25622635	    -11.14641617	      6.09057437	    -16.07769743	      8.91679085	     55.31635250	    -16.26356295	      6.60061494	    122.77803292	     90.00021046	    -83.94885719	    -10.21029697	    -28.76764137	     54.72984545	     90.00021046
      0.04000000	    -17.13190774	     10.50262991	     -1.90955366	     -5.48948400	      0.98276681	      0.17725877	    -25.88061428	    -13.58502091	    -10.35349113	     39.02116156	      0.68104775	    -31.10549643	     -9.21984204	     -9.05750618	     80.67695360	      1.31375257	     -8.26525298	     56.04782908	      0.97821916	      3.83871870	     -5.98284378	    -14.79829327	      5.17745206	    -16.79698615	      7.76185143	     53.55422411	    -16.34766453	      6.32331567	    124.73659179	     90.00021046	    -82.83657778	     -9.95376496	    -29.04038958	     54.83314916	     90.00021046
      0.04400000	    -16.55597975	      9.73988021	     -1.27929246	     -5.45235403	      0.98504635	      0.17663784	    -25.47356220	    -12.95439770	    -10.07051435	     44.19587138	      0.77136347	    -31.18494368	     -8.91281273	     -9.06397095	     78.17694837	      1.99806759	     -7.59978408	     51.58483327	      0.90032518	      3.93334660	     -3.62976402	    -15.00403029	      3.97112790	    -16.17260109	      6.59826228	     51.63790997	    -16.69740077	      6.35704447	    126.29549858	     90.00021046	    -81.52494739	     -9.74335119	    -28.60041386	     55.24063966	     90.00021046
      0.04800000	    -16.02794436	      9.32284297	     -1.09872125	     -5.41539416	      0.98744180	      0.17716421	    -24.82311548	    -12.61475293	     -9.27531034	     49.27098287	      0.85994088	    -31.87110262	     -8.76489494	     -9.49473331	     75.63870932	      2.13990515	     -7.55518926	     47.29110769	      0.82538554	      3.84738937	     -1.25789274	    -15.72178323	      2.92968134	    -15.93955833	      6.06586571	     49.27275998	    -16.90065238	      6.23855201	    127.81232074	     90.00021046	    -80.12741677	     -9.88775346	    -27.97142538	     55.93765671	     90.00021046
